{
  "accessors": [
    {
      "bufferView": 2,
      "componentType": 5126,
      "count": 34971,
      "max": [
        0.5606196522712708,
        0.9206663370132446,
        0.22804035246372223
      ],
      "min": [
        -0.5916329026222229,
        -0.9531679153442383,
        -0.25232306122779846
      ],
      "type": "VEC3"
    },
    {
      "bufferView": 2,
      "byteOffset": 419652,
      "componentType": 5126,
      "count": 34971,
      "max": [
        0.9999906420707703,
        0.9981313943862915,
        0.9999904632568359
      ],
      "min": [
        -0.9999783039093018,
        -0.9999803304672241,
        -0.9999874234199524
      ],
      "type": "VEC3"
    },
    {
      "bufferView": 1,
      "componentType": 5126,
      "count": 34971,
      "max": [
        0.9998976588249207,
        0.9999882578849792
      ],
      "min": [
        8.042071567615494e-05,
        9.715557098388672e-06
      ],
      "type": "VEC2"
    },
    {
      "bufferView": 0,
      "componentType": 5125,
      "count": 149898,
      "type": "SCALAR"
    }
  ],
  "asset": {
    "extras": {
      "author": "fluxium3d (https://sketchfab.com/fluxium3d)",
      "license": "CC-BY-4.0 (http://creativecommons.org/licenses/by/4.0/)",
      "source": "https://sketchfab.com/3d-models/ghost-woman-a-pose-f4f4f2f59f124f54a787438bb3ed9ab0",
      "title": "Ghost Woman A-Pose"
    },
    "generator": "Sketchfab-16.82.0",
    "version": "2.0"
  },
  "bufferViews": [
    {
      "buffer": 0,
      "byteLength": 599592,
      "name": "floatBufferViews",
      "target": 34963
    },
    {
      "buffer": 0,
      "byteLength": 279768,
      "byteOffset": 599592,
      "byteStride": 8,
      "name": "floatBufferViews",
      "target": 34962
    },
    {
      "buffer": 0,
      "byteLength": 839304,
      "byteOffset": 879360,
      "byteStride": 12,
      "name": "floatBufferViews",
      "target": 34962
    }
  ],
  "buffers": [
    {
      "byteLength": 1718664,
      "uri": "scene.bin"
    }
  ],
  "images": [
    {
      "uri": "textures/mvadapter_material_texture_mesh_494c898ad09230fe.glb_baseColor.jpeg"
    }
  ],
  "materials": [
    {
      "name": "mvadapter_material_texture_mesh_494c898ad09230fe.glb",
      "pbrMetallicRoughness": {
        "baseColorTexture": {
          "index": 0
        },
        "metallicFactor": 0.0,
        "roughnessFactor": 0.9
      }
    }
  ],
  "meshes": [
    {
      "name": "Object_0",
      "primitives": [
        {
          "attributes": {
            "NORMAL": 1,
            "POSITION": 0,
            "TEXCOORD_0": 2
          },
          "indices": 3,
          "material": 0,
          "mode": 4
        }
      ]
    }
  ],
  "nodes": [
    {
      "children": [
        1
      ],
      "matrix": [
        1.0,
        0.0,
        0.0,
        0.0,
        0.0,
        2.220446049250313e-16,
        -1.0,
        0.0,
        0.0,
        1.0,
        2.220446049250313e-16,
        0.0,
        0.0,
        0.0,
        0.0,
        1.0
      ],
      "name": "Sketchfab_model"
    },
    {
      "children": [
        2
      ],
      "name": "root"
    },
    {
      "children": [
        3
      ],
      "matrix": [
        1.0,
        0.0,
        0.0,
        0.0,
        0.0,
        2.220446049250313e-16,
        1.0,
        0.0,
        0.0,
        -1.0,
        2.220446049250313e-16,
        0.0,
        0.0,
        0.0,
        0.0,
        1.0
      ],
      "name": "GLTF_SceneRootNode"
    },
    {
      "children": [
        4
      ],
      "name": "mvadapter_node_texture_mesh_494c898ad09230fe.glb_0"
    },
    {
      "children": [
        5
      ],
      "name": "geometry_0_1"
    },
    {
      "mesh": 0,
      "name": "Object_5"
    }
  ],
  "samplers": [
    {
      "magFilter": 9729,
      "minFilter": 9987,
      "wrapS": 10497,
      "wrapT": 10497
    }
  ],
  "scene": 0,
  "scenes": [
    {
      "name": "Sketchfab_Scene",
      "nodes": [
        0
      ]
    }
  ],
  "textures": [
    {
      "sampler": 0,
      "source": 0
    }
  ]
}
